<mxfile host="app.diagrams.net" modified="2020-10-28T10:47:04.918Z" agent="5.0 (Windows NT 10.0; Win64; x64) AppleWebKit/537.36 (KHTML, like Gecko) Chrome/86.0.4240.111 Safari/537.36" etag="M-ZUGWgGH42c__ezsWGF" version="13.8.5" type="github">
  <diagram id="gfnUJu7TLGORwSLl_J-d" name="Page-1">
    <mxGraphModel dx="1004" dy="649" grid="1" gridSize="10" guides="1" tooltips="1" connect="1" arrows="1" fold="1" page="1" pageScale="1" pageWidth="827" pageHeight="1169" math="0" shadow="0">
      <root>
        <mxCell id="0" />
        <mxCell id="1" parent="0" />
        <mxCell id="xJqPMLtHzBKI9CbUthfr-11" value="" style="rounded=0;whiteSpace=wrap;html=1;strokeColor=#00CC66;fillColor=#FFFFFF;" parent="1" vertex="1">
          <mxGeometry x="70" y="190" width="166" height="350" as="geometry" />
        </mxCell>
        <mxCell id="KTYjkmk88nUUxBB73JGT-1" value="&lt;font color=&quot;#ffffff&quot;&gt;H5 移动端主站&lt;/font&gt;" style="rounded=0;whiteSpace=wrap;html=1;strokeColor=#00CC66;fillColor=#00CC66;" parent="1" vertex="1">
          <mxGeometry x="93" y="200" width="120" height="40" as="geometry" />
        </mxCell>
        <mxCell id="xJqPMLtHzBKI9CbUthfr-13" value="" style="rounded=0;whiteSpace=wrap;html=1;strokeColor=#00CC66;fillColor=#FFFFFF;" parent="1" vertex="1">
          <mxGeometry x="270" y="190" width="166" height="345" as="geometry" />
        </mxCell>
        <mxCell id="xJqPMLtHzBKI9CbUthfr-14" value="&lt;span style=&quot;color: rgb(255 , 255 , 255)&quot;&gt;H5 营销类&lt;/span&gt;" style="rounded=0;whiteSpace=wrap;html=1;strokeColor=#00CC66;fillColor=#00CC66;" parent="1" vertex="1">
          <mxGeometry x="293" y="200" width="120" height="40" as="geometry" />
        </mxCell>
        <mxCell id="xJqPMLtHzBKI9CbUthfr-15" value="卡券中心" style="rounded=0;whiteSpace=wrap;html=1;strokeColor=#00CC66;fillColor=#FFFFFF;" parent="1" vertex="1">
          <mxGeometry x="308" y="260" width="90" height="30" as="geometry" />
        </mxCell>
        <mxCell id="xJqPMLtHzBKI9CbUthfr-16" value="兑换码" style="rounded=0;whiteSpace=wrap;html=1;strokeColor=#00CC66;fillColor=#FFFFFF;" parent="1" vertex="1">
          <mxGeometry x="308" y="300" width="90" height="30" as="geometry" />
        </mxCell>
        <mxCell id="xJqPMLtHzBKI9CbUthfr-17" value="拼团" style="rounded=0;whiteSpace=wrap;html=1;strokeColor=#00CC66;fillColor=#FFFFFF;" parent="1" vertex="1">
          <mxGeometry x="308" y="340" width="90" height="30" as="geometry" />
        </mxCell>
        <mxCell id="xJqPMLtHzBKI9CbUthfr-18" value="套餐" style="rounded=0;whiteSpace=wrap;html=1;strokeColor=#00CC66;fillColor=#FFFFFF;" parent="1" vertex="1">
          <mxGeometry x="308" y="380" width="90" height="30" as="geometry" />
        </mxCell>
        <mxCell id="xJqPMLtHzBKI9CbUthfr-19" value="分享返利" style="rounded=0;whiteSpace=wrap;html=1;strokeColor=#00CC66;fillColor=#FFFFFF;" parent="1" vertex="1">
          <mxGeometry x="308" y="420" width="90" height="30" as="geometry" />
        </mxCell>
        <mxCell id="xJqPMLtHzBKI9CbUthfr-20" value="虚拟商品" style="rounded=0;whiteSpace=wrap;html=1;strokeColor=#00CC66;fillColor=#FFFFFF;" parent="1" vertex="1">
          <mxGeometry x="308" y="460" width="90" height="30" as="geometry" />
        </mxCell>
        <mxCell id="xJqPMLtHzBKI9CbUthfr-28" value="" style="rounded=0;whiteSpace=wrap;html=1;strokeColor=#00CC66;fillColor=#FFFFFF;" parent="1" vertex="1">
          <mxGeometry x="470" y="190" width="166" height="345" as="geometry" />
        </mxCell>
        <mxCell id="xJqPMLtHzBKI9CbUthfr-29" value="&lt;span style=&quot;color: rgb(255 , 255 , 255)&quot;&gt;H5 分发类&lt;/span&gt;" style="rounded=0;whiteSpace=wrap;html=1;strokeColor=#00CC66;fillColor=#00CC66;" parent="1" vertex="1">
          <mxGeometry x="493" y="200" width="120" height="40" as="geometry" />
        </mxCell>
        <mxCell id="xJqPMLtHzBKI9CbUthfr-30" value="店铺" style="rounded=0;whiteSpace=wrap;html=1;strokeColor=#00CC66;fillColor=#FFFFFF;" parent="1" vertex="1">
          <mxGeometry x="508" y="260" width="90" height="30" as="geometry" />
        </mxCell>
        <mxCell id="xJqPMLtHzBKI9CbUthfr-31" value="短视频" style="rounded=0;whiteSpace=wrap;html=1;strokeColor=#00CC66;fillColor=#FFFFFF;" parent="1" vertex="1">
          <mxGeometry x="508" y="300" width="90" height="30" as="geometry" />
        </mxCell>
        <mxCell id="xJqPMLtHzBKI9CbUthfr-32" value="榜单" style="rounded=0;whiteSpace=wrap;html=1;strokeColor=#00CC66;fillColor=#FFFFFF;" parent="1" vertex="1">
          <mxGeometry x="508" y="340" width="90" height="30" as="geometry" />
        </mxCell>
        <mxCell id="xJqPMLtHzBKI9CbUthfr-36" value="" style="rounded=0;whiteSpace=wrap;html=1;strokeColor=#00CC66;fillColor=#FFFFFF;" parent="1" vertex="1">
          <mxGeometry x="1280" y="190" width="166" height="345" as="geometry" />
        </mxCell>
        <mxCell id="xJqPMLtHzBKI9CbUthfr-37" value="&lt;span style=&quot;color: rgb(255 , 255 , 255)&quot;&gt;H5 其他&lt;/span&gt;" style="rounded=0;whiteSpace=wrap;html=1;strokeColor=#00CC66;fillColor=#00CC66;" parent="1" vertex="1">
          <mxGeometry x="1303" y="200" width="120" height="40" as="geometry" />
        </mxCell>
        <mxCell id="xJqPMLtHzBKI9CbUthfr-38" value="关于我们" style="rounded=0;whiteSpace=wrap;html=1;strokeColor=#00CC66;fillColor=#FFFFFF;" parent="1" vertex="1">
          <mxGeometry x="1318" y="260" width="90" height="30" as="geometry" />
        </mxCell>
        <mxCell id="xJqPMLtHzBKI9CbUthfr-39" value="帮助中心" style="rounded=0;whiteSpace=wrap;html=1;strokeColor=#00CC66;fillColor=#FFFFFF;" parent="1" vertex="1">
          <mxGeometry x="1318" y="290" width="90" height="30" as="geometry" />
        </mxCell>
        <mxCell id="xJqPMLtHzBKI9CbUthfr-40" value="隐私协议" style="rounded=0;whiteSpace=wrap;html=1;strokeColor=#00CC66;fillColor=#FFFFFF;" parent="1" vertex="1">
          <mxGeometry x="1318" y="320" width="90" height="30" as="geometry" />
        </mxCell>
        <mxCell id="xJqPMLtHzBKI9CbUthfr-41" value="隐私权限" style="rounded=0;whiteSpace=wrap;html=1;strokeColor=#00CC66;fillColor=#FFFFFF;" parent="1" vertex="1">
          <mxGeometry x="1318" y="350" width="90" height="30" as="geometry" />
        </mxCell>
        <mxCell id="xJqPMLtHzBKI9CbUthfr-44" value="" style="rounded=0;whiteSpace=wrap;html=1;strokeColor=#00CC66;fillColor=#FFFFFF;" parent="1" vertex="1">
          <mxGeometry x="670" y="190" width="166" height="345" as="geometry" />
        </mxCell>
        <mxCell id="xJqPMLtHzBKI9CbUthfr-45" value="&lt;span style=&quot;color: rgb(255 , 255 , 255)&quot;&gt;H5 服务类&lt;/span&gt;" style="rounded=0;whiteSpace=wrap;html=1;strokeColor=#00CC66;fillColor=#00CC66;" parent="1" vertex="1">
          <mxGeometry x="693" y="200" width="120" height="40" as="geometry" />
        </mxCell>
        <mxCell id="xJqPMLtHzBKI9CbUthfr-46" value="评价" style="rounded=0;whiteSpace=wrap;html=1;strokeColor=#00CC66;fillColor=#FFFFFF;" parent="1" vertex="1">
          <mxGeometry x="708" y="260" width="90" height="30" as="geometry" />
        </mxCell>
        <mxCell id="xJqPMLtHzBKI9CbUthfr-47" value="直播" style="rounded=0;whiteSpace=wrap;html=1;strokeColor=#00CC66;fillColor=#FFFFFF;" parent="1" vertex="1">
          <mxGeometry x="708" y="300" width="90" height="30" as="geometry" />
        </mxCell>
        <mxCell id="xJqPMLtHzBKI9CbUthfr-48" value="学习资料" style="rounded=0;whiteSpace=wrap;html=1;strokeColor=#00CC66;fillColor=#FFFFFF;" parent="1" vertex="1">
          <mxGeometry x="708" y="340" width="90" height="30" as="geometry" />
        </mxCell>
        <mxCell id="xJqPMLtHzBKI9CbUthfr-49" value="训练营" style="rounded=0;whiteSpace=wrap;html=1;strokeColor=#00CC66;fillColor=#FFFFFF;" parent="1" vertex="1">
          <mxGeometry x="708" y="380" width="90" height="30" as="geometry" />
        </mxCell>
        <mxCell id="xJqPMLtHzBKI9CbUthfr-52" value="" style="rounded=0;whiteSpace=wrap;html=1;strokeColor=#00CC66;fillColor=#FFFFFF;" parent="1" vertex="1">
          <mxGeometry x="870" y="190" width="166" height="345" as="geometry" />
        </mxCell>
        <mxCell id="xJqPMLtHzBKI9CbUthfr-53" value="&lt;span style=&quot;color: rgb(255 , 255 , 255)&quot;&gt;H5 用户类&lt;/span&gt;" style="rounded=0;whiteSpace=wrap;html=1;strokeColor=#00CC66;fillColor=#00CC66;" parent="1" vertex="1">
          <mxGeometry x="893" y="200" width="120" height="40" as="geometry" />
        </mxCell>
        <mxCell id="xJqPMLtHzBKI9CbUthfr-54" value="用户中心" style="rounded=0;whiteSpace=wrap;html=1;strokeColor=#00CC66;fillColor=#FFFFFF;" parent="1" vertex="1">
          <mxGeometry x="908" y="260" width="90" height="30" as="geometry" />
        </mxCell>
        <mxCell id="xJqPMLtHzBKI9CbUthfr-55" value="我的已购" style="rounded=0;whiteSpace=wrap;html=1;strokeColor=#00CC66;fillColor=#FFFFFF;" parent="1" vertex="1">
          <mxGeometry x="908" y="290" width="90" height="30" as="geometry" />
        </mxCell>
        <mxCell id="xJqPMLtHzBKI9CbUthfr-56" value="我的订单" style="rounded=0;whiteSpace=wrap;html=1;strokeColor=#00CC66;fillColor=#FFFFFF;" parent="1" vertex="1">
          <mxGeometry x="908" y="320" width="90" height="30" as="geometry" />
        </mxCell>
        <mxCell id="xJqPMLtHzBKI9CbUthfr-57" value="我的收藏" style="rounded=0;whiteSpace=wrap;html=1;strokeColor=#00CC66;fillColor=#FFFFFF;" parent="1" vertex="1">
          <mxGeometry x="908" y="350" width="90" height="30" as="geometry" />
        </mxCell>
        <mxCell id="xJqPMLtHzBKI9CbUthfr-58" value="我的拼团" style="rounded=0;whiteSpace=wrap;html=1;strokeColor=#00CC66;fillColor=#FFFFFF;" parent="1" vertex="1">
          <mxGeometry x="908" y="380" width="90" height="30" as="geometry" />
        </mxCell>
        <mxCell id="xJqPMLtHzBKI9CbUthfr-59" value="我的预约" style="rounded=0;whiteSpace=wrap;html=1;strokeColor=#00CC66;fillColor=#FFFFFF;" parent="1" vertex="1">
          <mxGeometry x="908" y="410" width="90" height="30" as="geometry" />
        </mxCell>
        <mxCell id="xJqPMLtHzBKI9CbUthfr-60" value="我的奖学金" style="rounded=0;whiteSpace=wrap;html=1;strokeColor=#00CC66;fillColor=#FFFFFF;" parent="1" vertex="1">
          <mxGeometry x="908" y="440" width="90" height="30" as="geometry" />
        </mxCell>
        <mxCell id="xJqPMLtHzBKI9CbUthfr-67" value="" style="rounded=0;whiteSpace=wrap;html=1;strokeColor=#00CC66;fillColor=#FFFFFF;" parent="1" vertex="1">
          <mxGeometry x="1075" y="190" width="166" height="345" as="geometry" />
        </mxCell>
        <mxCell id="xJqPMLtHzBKI9CbUthfr-68" value="&lt;span style=&quot;color: rgb(255 , 255 , 255)&quot;&gt;H5 活动类&lt;/span&gt;" style="rounded=0;whiteSpace=wrap;html=1;strokeColor=#00CC66;fillColor=#00CC66;" parent="1" vertex="1">
          <mxGeometry x="1098" y="200" width="120" height="40" as="geometry" />
        </mxCell>
        <mxCell id="xJqPMLtHzBKI9CbUthfr-69" value="首页" style="rounded=0;whiteSpace=wrap;html=1;strokeColor=#00CC66;fillColor=#FFFFFF;" parent="1" vertex="1">
          <mxGeometry x="108" y="260" width="90" height="30" as="geometry" />
        </mxCell>
        <mxCell id="xJqPMLtHzBKI9CbUthfr-70" value="课程页" style="rounded=0;whiteSpace=wrap;html=1;strokeColor=#00CC66;fillColor=#FFFFFF;" parent="1" vertex="1">
          <mxGeometry x="108" y="290" width="90" height="30" as="geometry" />
        </mxCell>
        <mxCell id="xJqPMLtHzBKI9CbUthfr-71" value="收银台" style="rounded=0;whiteSpace=wrap;html=1;strokeColor=#00CC66;fillColor=#FFFFFF;" parent="1" vertex="1">
          <mxGeometry x="108" y="320" width="90" height="30" as="geometry" />
        </mxCell>
        <mxCell id="xJqPMLtHzBKI9CbUthfr-72" value="支付结果页" style="rounded=0;whiteSpace=wrap;html=1;strokeColor=#00CC66;fillColor=#FFFFFF;" parent="1" vertex="1">
          <mxGeometry x="108" y="350" width="90" height="30" as="geometry" />
        </mxCell>
        <mxCell id="xJqPMLtHzBKI9CbUthfr-7" value="通用下载页" style="rounded=0;whiteSpace=wrap;html=1;strokeColor=#00CC66;fillColor=#FFFFFF;" parent="1" vertex="1">
          <mxGeometry x="1113" y="260" width="90" height="30" as="geometry" />
        </mxCell>
        <mxCell id="xJqPMLtHzBKI9CbUthfr-8" value="老的运营图谱" style="rounded=0;whiteSpace=wrap;html=1;strokeColor=#00CC66;fillColor=#FFFFFF;" parent="1" vertex="1">
          <mxGeometry x="1113" y="300" width="90" height="30" as="geometry" />
        </mxCell>
        <mxCell id="xJqPMLtHzBKI9CbUthfr-85" value="学习激励发券" style="rounded=0;whiteSpace=wrap;html=1;strokeColor=#00CC66;fillColor=#FFFFFF;" parent="1" vertex="1">
          <mxGeometry x="1113" y="340" width="90" height="30" as="geometry" />
        </mxCell>
      </root>
    </mxGraphModel>
  </diagram>
</mxfile>
